<?xml version="1.0" encoding="UTF-8" standalone="no"?><!DOCTYPE svg PUBLIC "-//W3C//DTD SVG 1.1//EN" "http://www.w3.org/Graphics/SVG/1.1/DTD/svg11.dtd"><svg width="100%" height="100%" viewBox="0 0 480 446" version="1.1" xmlns="http://www.w3.org/2000/svg" xmlns:xlink="http://www.w3.org/1999/xlink" xml:space="preserve" xmlns:serif="http://www.serif.com/" style="fill-rule:evenodd;clip-rule:evenodd;stroke-linecap:round;stroke-linejoin:round;stroke-miterlimit:1.5;"><g><g id="Logo"><g><path d="M387.483,21.78c0,-9.721 -7.892,-17.613 -17.613,-17.613l-348.106,-0c-9.721,-0 -17.614,7.892 -17.614,17.613l0,317.044c0,9.721 7.893,17.614 17.614,17.614l348.106,-0c9.721,-0 17.613,-7.893 17.613,-17.614l0,-317.044Z" style="fill:none;stroke:#000;stroke-width:8.33px;"/></g><g><path d="M474.983,106.201c0,-9.721 -7.892,-17.613 -17.613,-17.613l-348.106,-0c-9.721,-0 -17.614,7.892 -17.614,17.613l0,317.044c0,9.721 7.893,17.614 17.614,17.614l348.106,-0c9.721,-0 17.613,-7.893 17.613,-17.614l0,-317.044Z" style="fill:none;stroke:#000;stroke-width:8.33px;"/></g></g></g></svg>