<?xml version="1.0" encoding="UTF-8" standalone="no"?>
<!DOCTYPE svg PUBLIC "-//W3C//DTD SVG 1.1//EN" "http://www.w3.org/Graphics/SVG/1.1/DTD/svg11.dtd">
<svg width="100%" height="100%" viewBox="0 0 115 107" version="1.1" xmlns="http://www.w3.org/2000/svg" xmlns:xlink="http://www.w3.org/1999/xlink" xml:space="preserve" xmlns:serif="http://www.serif.com/" style="fill-rule:evenodd;clip-rule:evenodd;stroke-linecap:round;stroke-linejoin:round;stroke-miterlimit:1.5;">
    <g transform="matrix(1,0,0,1,-1352,-574)">
        <g id="Logo">
            <g transform="matrix(0.169429,0,0,0.169429,1334.02,515.361)">
                <path d="M655,376.95C655,363.18 643.82,352 630.05,352L136.95,352C123.18,352 112,363.18 112,376.95L112,826.05C112,839.82 123.18,851 136.95,851L630.05,851C643.82,851 655,839.82 655,826.05L655,376.95Z" style="fill:none;stroke:rgb(255,255,255);stroke-width:11.8px;"/>
            </g>
            <g transform="matrix(0.169429,0,0,0.169429,1355.02,535.622)">
                <path d="M655,376.95C655,363.18 643.82,352 630.05,352L136.95,352C123.18,352 112,363.18 112,376.95L112,826.05C112,839.82 123.18,851 136.95,851L630.05,851C643.82,851 655,839.82 655,826.05L655,376.95Z" style="fill:none;stroke:rgb(255,255,255);stroke-width:11.8px;"/>
            </g>
        </g>
    </g>
</svg>
